HIERARCHY
ROOT pelvis
{
	OFFSET 0.000000 0.000000 0.000000
	CHANNELS 6 Xposition Yposition Zposition Zrotation Xrotation Yrotation
	JOINT lfemur
	{
		OFFSET 11.446000 0.000000 0.000000
		CHANNELS 3 Zrotation Xrotation Yrotation
		JOINT ltibia
		{
			OFFSET 0.000000 -42.030400 0.000000
			CHANNELS 3 Zrotation Xrotation Yrotation
			JOINT lfoot
			{
				OFFSET 0.000000 -39.930200 0.000000
				CHANNELS 3 Zrotation Xrotation Yrotation
				JOINT ltoes
				{
					OFFSET 0.000000 0.000000 11.775800
					CHANNELS 3 Zrotation Xrotation Yrotation
					End Site
					{
					    OFFSET 0.000000 0.000000 5.000000
					}
				}
			}
		}
	}
	JOINT rfemur
	{
		OFFSET -11.446000 0.000000 0.000000
		CHANNELS 3 Zrotation Xrotation Yrotation
		JOINT rtibia
		{
			OFFSET 0.000000 -42.030400 0.000000
			CHANNELS 3 Zrotation Xrotation Yrotation
			JOINT rfoot
			{
				OFFSET 0.000000 -39.930200 0.000000
				CHANNELS 3 Zrotation Xrotation Yrotation
				JOINT rtoes
				{
					OFFSET 0.000000 0.000000 11.775800
					CHANNELS 3 Zrotation Xrotation Yrotation
					End Site
					{
					    OFFSET 0.000000 0.000000 5.000000
					}
				}
			}
		}
	}
	JOINT thorax
	{
		OFFSET 0.000000 11.255600 -5.000000
		CHANNELS 3 Zrotation Xrotation Yrotation
		JOINT head
		{
			OFFSET 0.000000 43.799300 0.000000
			CHANNELS 3 Zrotation Xrotation Yrotation
			End Site
			{
			    OFFSET 0.000000 5.000000 0.000000
			}
		}
		JOINT lclavicle
		{
			OFFSET 0.000000 39.863000 0.000000
			CHANNELS 3 Zrotation Xrotation Yrotation
			JOINT lhumerus
			{
				OFFSET 17.380600 4.958300 0.000000
				CHANNELS 3 Zrotation Xrotation Yrotation
				JOINT lradius
				{
					OFFSET 0.000000 -27.561300 0.000000
					CHANNELS 3 Zrotation Xrotation Yrotation
					JOINT lhand
					{
						OFFSET 0.000000 -26.933000 0.000000
						CHANNELS 3 Zrotation Xrotation Yrotation
						End Site
						{
						    OFFSET 0.000000 -5.000000 0.000000
						}
					}
				}
			}
		}
		JOINT rclavicle
		{
			OFFSET 0.000000 39.863000 0.000000
			CHANNELS 3 Zrotation Xrotation Yrotation
			JOINT rhumerus
			{
				OFFSET -17.380600 4.958300 0.000000
				CHANNELS 3 Zrotation Xrotation Yrotation
				JOINT rradius
				{
					OFFSET 0.000000 -27.561300 0.000000
					CHANNELS 3 Zrotation Xrotation Yrotation
					JOINT rhand
					{
						OFFSET 0.000000 -26.933000 0.000000
						CHANNELS 3 Zrotation Xrotation Yrotation
						End Site
						{
						    OFFSET 0.000000 -5.000000 0.000000
						}
					}
				}
			}
		}
	}
}
MOTION
Frames:	18
Frame Time:	0.0333333
110.036600 87.784700 12.518400 -2.286919 -4.362428 -110.627733 -1.328778 -16.808619 1.371670 -0.000000 17.493476 0.000000 -0.000000 14.354570 5.174850 -0.000000 -1.423848 0.000000 1.288505 3.979155 -12.244116 0.000000 6.518804 -0.000000 -0.000000 2.758951 -7.381722 -0.000000 -29.513674 -0.000000 3.076361 9.620167 -2.930352 19.720206 21.272589 -8.250373 -12.666737 -0.000000 0.680168 32.308349 12.528906 -31.307424 180.000034 -69.036470 155.730855 11.737981 -12.855364 -0.000000 23.901615 0.000000 0.259703 -38.893578 3.278114 26.603973 -180.000037 -70.736767 -173.363898 7.173042 -5.882477 -0.000000 
109.740500 87.733600 12.581600 -1.763404 -4.395968 -109.513509 -1.828740 -17.818311 2.527092 0.000000 16.871462 -0.000000 -0.000000 14.451286 4.983164 -0.000000 -1.429726 -0.000000 1.488179 3.944059 -12.418261 -0.000000 6.194046 0.000000 -0.000000 2.633632 -8.323547 -0.000000 -29.514329 0.000000 3.151640 9.631472 -2.750312 19.091240 20.960234 -7.500994 -12.658639 0.000000 1.987758 32.549331 10.678121 -32.113316 180.000032 -69.555328 156.530192 11.476344 -13.103796 -0.000000 23.578992 -0.000000 0.385290 -38.370615 3.209051 26.506936 -180.000037 -70.725994 -172.843740 6.885262 -5.786707 -0.000000 
109.340100 87.672400 12.638800 -1.243667 -4.365093 -108.510310 -2.341357 -18.634732 3.154639 0.000000 16.172455 0.000000 0.000000 14.407224 5.383912 -0.000000 -1.427596 -0.000000 1.704250 4.008264 -12.804948 -0.000000 5.783336 0.000000 -0.000000 2.719942 -8.807624 0.000000 -29.515268 0.000000 3.237568 9.722357 -2.358582 18.608620 20.419154 -6.814012 -12.814922 -0.000000 2.193748 32.630176 10.191979 -32.216754 180.000032 -69.605941 156.433908 11.547124 -12.888495 0.000000 23.452558 -0.000000 0.560711 -38.340653 3.259424 26.219079 -180.000035 -70.425573 -173.676773 6.798588 -5.757548 -0.000000 
108.839100 87.591400 12.687700 -0.689250 -4.365923 -107.510537 -2.857692 -19.364156 3.556661 0.000000 15.328321 -0.000000 0.000000 14.517010 5.318644 0.000000 -1.423994 -0.000000 1.856387 3.984667 -13.252837 0.000000 5.625558 -0.000000 -0.000000 2.486489 -9.323139 -0.000000 -29.515292 -0.000000 3.138845 9.795140 -2.096043 18.457844 19.841487 -6.145665 -12.889274 -0.000000 2.400881 32.639990 9.859422 -32.305001 -180.000035 -69.769818 156.748613 11.770335 -12.938399 0.000000 23.556340 0.000000 0.742263 -38.405030 3.280448 26.061977 -180.000037 -70.314841 -173.712402 6.282324 -5.582763 0.000000 
108.211200 87.461400 12.734900 -0.242992 -4.133042 -106.548948 -3.256858 -19.713631 3.560971 0.000000 14.164307 0.000000 -0.000000 14.516923 5.505427 0.000000 -1.408014 -0.000000 2.187597 4.236983 -13.424270 0.000000 5.439922 -0.000000 -0.000000 2.033190 -10.141103 -0.000000 -29.517318 -0.000000 3.220565 10.043015 -2.103964 18.285979 19.162682 -5.401712 -12.954440 -0.000000 2.662133 32.496403 9.806343 -32.226183 180.000033 -70.096522 155.970538 11.740613 -12.624741 -0.000000 23.458152 0.000000 0.955598 -38.404745 3.094433 26.076345 -180.000037 -70.540152 -173.442639 5.686896 -5.380403 0.000000 
107.490800 87.294400 12.753000 0.461337 -3.955836 -105.744336 -3.441879 -20.271526 3.425576 0.000000 13.305508 0.000000 0.000000 14.435177 5.636645 -0.000000 -1.411137 -0.000000 2.485948 4.115580 -13.503664 0.000000 5.548768 -0.000000 -0.000000 1.692907 -10.715963 -0.000000 -29.517458 0.000000 3.205364 9.869328 -1.849815 18.221511 18.621288 -4.809322 -13.169439 0.000000 2.722202 32.377838 9.957883 -32.207522 -180.000035 -70.573114 155.992121 11.823322 -12.863776 0.000000 23.629151 0.000000 1.044219 -38.783214 3.190257 26.080170 -180.000034 -70.506120 -172.288286 5.344403 -5.264391 -0.000000 
106.622400 87.095300 12.748800 0.904288 -3.623863 -105.095596 -3.437661 -20.396811 3.303739 0.000000 12.492922 0.000000 -0.000000 14.341481 5.613828 -0.000000 -1.415582 0.000000 2.757063 4.247258 -14.203538 0.000000 5.955358 -0.000000 0.000000 1.080912 -10.539733 -0.000000 -29.518397 -0.000000 3.153976 10.110157 -1.636400 18.227649 17.923119 -4.017574 -13.238351 0.000000 2.779490 32.257559 10.199664 -32.439368 180.000030 -70.698265 156.174965 12.900486 -12.455112 -0.000000 23.538152 0.000000 1.166809 -38.650488 3.570649 25.870688 -180.000037 -70.359791 -173.156748 5.054715 -5.168841 -0.000000 
105.637300 86.866000 12.763900 1.426395 -3.439297 -104.676919 -3.419163 -20.621642 3.264864 0.000000 12.151457 -0.000000 -0.000000 14.321344 5.416327 -0.000000 -1.416735 0.000000 2.901181 4.277557 -13.804613 0.000000 6.438162 0.000000 0.000000 0.308771 -11.201843 0.000000 -29.519121 -0.000000 2.919511 10.271879 -1.580076 17.806269 17.581874 -2.579151 -13.361849 -0.000000 3.164001 32.246982 10.183671 -32.438958 -180.000036 -70.759320 156.729989 13.306589 -12.405254 0.000000 23.420395 0.000000 0.999299 -38.497552 3.203168 26.386389 -180.000035 -70.492437 -173.340260 4.362007 -4.937770 -0.000000 
104.511400 86.622700 12.755700 2.020476 -3.210039 -104.327785 -3.329602 -20.806373 2.697980 -0.000000 12.260847 0.000000 0.000000 14.514427 5.327192 0.000000 -1.415670 -0.000000 3.114514 4.363969 -13.873089 -0.000000 6.803070 -0.000000 -0.000000 -0.345976 -11.595519 0.000000 -29.519793 -0.000000 2.578200 10.154780 -1.339431 17.661511 17.308943 -1.867346 -13.302505 0.000000 2.984730 31.911008 10.341348 -32.334422 -180.000037 -71.114641 155.945226 13.552893 -12.194443 0.000000 23.144787 0.000000 1.275813 -37.905441 4.023504 26.292318 180.000037 -70.136440 -173.490645 3.694955 -4.712407 0.000000 
103.155700 86.380300 12.781000 2.494965 -3.145831 -103.989243 -3.514269 -20.928678 2.150684 0.000000 13.273401 -0.000000 0.000000 14.525846 5.081945 -0.000000 -1.409482 -0.000000 3.105272 4.816914 -13.963005 -0.000000 6.865162 -0.000000 -0.000000 -0.934591 -11.968929 -0.000000 -29.522146 -0.000000 2.019981 9.909143 -1.152105 17.281199 17.509815 -0.835475 -13.533975 0.000000 2.989578 32.096285 10.020414 -32.493112 -180.000033 -71.184075 156.536955 12.458505 -12.293032 -0.000000 23.031584 0.000000 0.992233 -37.691100 3.897665 26.775280 180.000037 -70.084353 -173.085279 3.264329 -4.566507 -0.000000 
101.649500 86.243600 12.879500 2.824918 -3.472690 -103.602388 -4.225286 -21.062793 1.674678 -0.000000 14.215129 -0.000000 0.000000 15.602408 5.044308 -0.000000 -1.389187 -0.000000 2.602359 5.330544 -14.193258 0.000000 7.074000 -0.000000 -0.000000 -1.320428 -12.335338 0.000000 -29.525128 -0.000000 0.983016 9.619073 -0.947579 17.034914 17.481909 -0.423106 -13.832774 0.000000 3.116756 32.450379 9.275499 -32.794933 180.000036 -71.003313 156.216077 11.944945 -12.509982 0.000000 22.777480 0.000000 0.935252 -36.891273 4.060988 26.655832 180.000035 -70.085377 -172.751013 3.008927 -4.482270 0.000000 
100.037400 86.186900 13.121500 2.917505 -4.135381 -103.150549 -5.395327 -21.387026 1.225504 0.000000 16.173604 -0.000000 -0.000000 14.834367 5.067993 -0.000000 -1.352201 -0.000000 1.639513 6.007764 -14.110616 -0.000000 7.392955 -0.000000 0.000000 -1.714355 -13.130478 -0.000000 -29.528068 -0.000000 -0.309678 9.396581 -0.669425 16.304417 17.593691 0.114711 -14.375498 -0.000000 3.458393 33.064769 8.234018 -33.451970 180.000032 -70.735936 155.814033 11.172641 -12.654894 -0.000000 22.586059 0.000000 0.449639 -36.479367 3.858666 27.206922 180.000037 -70.072681 -173.065642 1.923395 -4.114395 0.000000 
98.363800 86.133300 13.381100 3.034021 -4.638495 -102.439866 -6.590936 -21.812807 -0.068036 -0.000000 18.670128 -0.000000 0.000000 13.271848 5.166503 0.000000 -1.343677 -0.000000 0.749435 6.328965 -14.388206 0.000000 8.621925 -0.000000 -0.000000 -1.890783 -13.749785 -0.000000 -29.531490 0.000000 -1.325805 9.258767 -0.465896 15.416641 17.613614 0.472822 -14.775424 -0.000000 3.554956 33.513929 7.416612 -33.940636 -180.000036 -70.074697 155.727569 11.156340 -12.678950 -0.000000 22.214225 -0.000000 0.432717 -35.998438 3.862395 27.065137 -180.000036 -69.960897 -171.536862 1.394137 -3.935999 -0.000000 
96.599100 86.073400 13.716200 2.863866 -4.857147 -101.877173 -7.499841 -21.616424 -0.608746 -0.000000 20.718698 0.000000 -0.000000 11.703803 5.126007 0.000000 -1.337041 -0.000000 -0.335813 6.215458 -15.439689 -0.000000 11.592674 -0.000000 -0.000000 -2.123481 -13.259436 -0.000000 -29.536889 0.000000 -1.860046 9.354477 -0.105166 14.114880 18.107600 0.983717 -15.178421 0.000000 3.425033 33.850231 6.821200 -34.107508 -180.000035 -69.077301 155.917228 11.243652 -12.738430 -0.000000 21.503175 0.000000 1.257664 -35.012314 5.101915 26.108972 180.000037 -69.249736 -172.424261 1.796996 -4.073934 -0.000000 
94.926100 86.010000 14.085000 2.973652 -4.833647 -101.356833 -7.995995 -21.583814 -0.535633 -0.000000 22.438134 0.000000 0.000000 10.270834 4.715469 0.000000 -1.335247 -0.000000 -1.579849 4.660827 -16.474649 -0.000000 16.954589 -0.000000 0.000000 -2.333649 -12.471608 0.000000 -29.542142 -0.000000 -2.068585 9.410898 0.118646 12.774141 18.622994 1.954320 -15.368981 -0.000000 3.598756 33.759958 6.123413 -33.944202 180.000029 -68.384004 155.631678 10.793930 -13.130118 0.000000 21.174538 -0.000000 1.275940 -35.079414 4.592167 26.117724 -180.000035 -69.056275 -172.042444 1.583721 -4.001074 0.000000 
93.328300 85.957700 14.491600 2.990208 -4.833106 -101.001856 -8.604773 -21.364880 -0.809516 -0.000000 23.929074 -0.000000 -0.000000 9.049164 4.713786 -0.000000 -1.328437 -0.000000 -3.408341 1.987867 -17.379746 -0.000000 24.714973 0.000000 0.000000 -1.961740 -11.283959 0.000000 -29.543812 -0.000000 -2.212143 9.536603 0.194762 11.301429 19.237120 3.047716 -15.584523 0.000000 3.725632 33.756463 5.771086 -33.573881 180.000035 -67.999111 155.232623 10.404644 -13.117451 -0.000000 21.137933 0.000000 1.323057 -35.580321 3.574013 26.458931 -180.000037 -69.195290 -172.314625 1.843109 -4.090925 -0.000000 
91.834500 85.904000 14.887500 2.852078 -4.910099 -100.673979 -9.330460 -20.927769 -1.296448 -0.000000 25.092583 -0.000000 -0.000000 8.120578 4.868480 -0.000000 -1.317478 -0.000000 -5.599498 -1.175510 -18.275303 -0.000000 33.355748 0.000000 0.000000 -0.879346 -10.171385 -0.000000 -29.544160 -0.000000 -2.463809 9.776750 0.294376 10.021555 19.765017 4.189221 -15.561238 0.000000 3.638750 33.452522 5.666983 -32.861920 180.000032 -68.157759 155.829117 10.677220 -13.006811 -0.000000 21.026944 0.000000 1.449260 -35.814819 2.614417 26.628770 -180.000036 -69.525157 -172.315431 1.544015 -3.990482 0.000000 
90.646500 85.788000 15.230500 3.088255 -5.238954 -100.280995 -10.154640 -21.142995 -1.809479 -0.000000 26.450147 -0.000000 -0.000000 7.388392 4.768285 -0.000000 -1.318845 -0.000000 -7.562935 -5.200898 -18.142564 -0.000000 41.953653 -0.000000 0.000000 -0.712686 -10.719215 0.000000 -29.537839 -0.000000 -2.966120 9.823823 0.390696 9.303891 19.680873 4.752262 -15.511625 -0.000000 3.311199 33.565584 5.532243 -32.104296 -180.000037 -68.542073 155.661747 10.572768 -13.143927 -0.000000 20.960826 -0.000000 1.613029 -35.792516 1.932894 26.510109 -180.000037 -69.509309 -172.351406 0.916049 -3.778917 -0.000000 
